<?xml version="1.0" encoding="UTF-8" standalone="no"?>
<!-- Created with Inkscape (http://www.inkscape.org/) -->

<svg
   version="1.1"
   id="svg1"
   width="297mm"
   height="210mm"
   viewBox="0 0 1122.5197 793.70079"
   sodipodi:docname="Logotipo_letrasNegrasBordesBlancos-fondoBlanco.svg"
   xml:space="preserve"
   inkscape:version="1.4.2 (f4327f4, 2025-05-13)"
   xmlns:inkscape="http://www.inkscape.org/namespaces/inkscape"
   xmlns:sodipodi="http://sodipodi.sourceforge.net/DTD/sodipodi-0.dtd"
   xmlns:xlink="http://www.w3.org/1999/xlink"
   xmlns="http://www.w3.org/2000/svg"
   xmlns:svg="http://www.w3.org/2000/svg"><defs
     id="defs1"><color-profile
       name="sRGB-IEC61966-2.1"
       xlink:href="../../../../../../../../Windows/system32/spool/drivers/color/sRGB%20Color%20Space%20Profile.icm"
       id="color-profile1" /><clipPath
       clipPathUnits="userSpaceOnUse"
       id="clipPath55"><path
         id="path55"
         style="stroke-width:0.1;stroke-linecap:square;paint-order:markers fill stroke;stop-color:#000000"
         d="m 1736.6147,-745.57287 h 1589.4765 v 72.46715 H 1736.6147 Z" /></clipPath><linearGradient
       id="swatch1"
       inkscape:swatch="solid"><stop
         style="stop-color:#ffffff;stop-opacity:1;"
         offset="0"
         id="stop1" /></linearGradient><linearGradient
       id="swatch120312"
       inkscape:swatch="solid"><stop
         style="stop-color:#000000;stop-opacity:0.56474257;"
         offset="0"
         id="stop120313" /></linearGradient><linearGradient
       inkscape:collect="always"
       xlink:href="#swatch1"
       id="linearGradient1"
       x1="40.013397"
       y1="215.29491"
       x2="309.29565"
       y2="215.29491"
       gradientUnits="userSpaceOnUse" /><linearGradient
       inkscape:collect="always"
       xlink:href="#swatch1"
       id="linearGradient6"
       gradientUnits="userSpaceOnUse"
       x1="40.013397"
       y1="215.29491"
       x2="309.29565"
       y2="215.29491" /><linearGradient
       inkscape:collect="always"
       xlink:href="#swatch1"
       id="linearGradient7"
       gradientUnits="userSpaceOnUse"
       x1="40.013397"
       y1="215.29491"
       x2="309.29565"
       y2="215.29491" /><linearGradient
       inkscape:collect="always"
       xlink:href="#swatch1"
       id="linearGradient36"
       gradientUnits="userSpaceOnUse"
       x1="40.013397"
       y1="215.29491"
       x2="309.29565"
       y2="215.29491" /><linearGradient
       inkscape:collect="always"
       xlink:href="#swatch1"
       id="linearGradient37"
       gradientUnits="userSpaceOnUse"
       x1="40.013397"
       y1="215.29491"
       x2="309.29565"
       y2="215.29491" /><linearGradient
       inkscape:collect="always"
       xlink:href="#swatch1"
       id="linearGradient38"
       gradientUnits="userSpaceOnUse"
       x1="40.013397"
       y1="215.29491"
       x2="309.29565"
       y2="215.29491" /><linearGradient
       inkscape:collect="always"
       xlink:href="#swatch1"
       id="linearGradient39"
       gradientUnits="userSpaceOnUse"
       x1="40.013397"
       y1="215.29491"
       x2="309.29565"
       y2="215.29491" /></defs><sodipodi:namedview
     id="namedview1"
     pagecolor="#ffffff"
     bordercolor="#000000"
     borderopacity="0.25"
     inkscape:showpageshadow="2"
     inkscape:pageopacity="0.0"
     inkscape:pagecheckerboard="0"
     inkscape:deskcolor="#d1d1d1"
     inkscape:zoom="0.47849149"
     inkscape:cx="420.07017"
     inkscape:cy="456.64344"
     inkscape:window-width="1920"
     inkscape:window-height="991"
     inkscape:window-x="-9"
     inkscape:window-y="-9"
     inkscape:window-maximized="1"
     inkscape:current-layer="g1"
     inkscape:document-units="mm" /><g
     inkscape:groupmode="layer"
     inkscape:label="Image"
     id="g1"><g
       id="g111"
       transform="translate(1284.1287,75.993125)" /><g
       inkscape:label="Capa 1"
       id="layer1"
       transform="matrix(3.7037486,0,0,3.7037486,-80.785478,-407.45297)"
       inkscape:highlight-color="#9f9f9f"
       style="opacity:1;mix-blend-mode:luminosity;fill:#000000;fill-opacity:1;stroke:url(#linearGradient1);stroke-width:6.12276;stroke-linecap:square;stroke-linejoin:round;stroke-miterlimit:9.6;stroke-dasharray:none;paint-order:markers stroke fill"><text
         xml:space="preserve"
         style="font-size:3.175px;text-align:start;writing-mode:lr-tb;direction:ltr;text-anchor:start;fill:#000000;fill-opacity:1;stroke:url(#linearGradient36);stroke-width:6.12276;stroke-linecap:square;stroke-linejoin:round;stroke-miterlimit:9.6;stroke-dasharray:none;paint-order:markers stroke fill"
         x="25.317694"
         y="53.075645"
         id="text1"><tspan
           sodipodi:role="line"
           id="tspan1"
           style="fill:#000000;fill-opacity:1;stroke:url(#linearGradient36);stroke-width:6.12276;stroke-linecap:square;stroke-linejoin:round;stroke-miterlimit:9.6;stroke-dasharray:none;paint-order:markers stroke fill"
           x="25.317694"
           y="53.075645" /></text><text
         xml:space="preserve"
         style="font-size:50.8px;text-align:start;writing-mode:lr-tb;direction:ltr;text-anchor:start;white-space:pre;inline-size:38.7182;display:inline;fill:#000000;fill-opacity:1;stroke:url(#linearGradient37);stroke-width:6.12276;stroke-linecap:square;stroke-linejoin:round;stroke-miterlimit:9.6;stroke-dasharray:none;paint-order:markers stroke fill"
         x="35.688797"
         y="255.92221"
         id="text2"
         transform="translate(-7.9308436,-29.588147)"><tspan
           x="35.688797"
           y="255.92221"
           id="tspan3"><tspan
             dx="0 26.009556 32.105598 24.227497"
             style="font-weight:bold;font-family:'Source Serif 4';-inkscape-font-specification:'Source Serif 4 Bold'"
             id="tspan2">LAST</tspan></tspan></text><text
         xml:space="preserve"
         style="font-style:normal;font-variant:normal;font-weight:bold;font-stretch:normal;font-size:50.8px;font-family:'Source Serif 4';-inkscape-font-specification:'Source Serif 4 Bold';text-align:start;writing-mode:lr-tb;direction:ltr;text-anchor:start;white-space:pre;inline-size:73.3673;display:inline;fill:#000000;fill-opacity:1;stroke:url(#linearGradient38);stroke-width:6.12276;stroke-linecap:square;stroke-linejoin:round;stroke-miterlimit:9.6;stroke-dasharray:none;paint-order:markers stroke fill"
         x="1.5251621"
         y="304.42236"
         id="text3"
         transform="translate(10.066071,-63.141716)"><tspan
           x="1.5251621"
           y="304.42236"
           id="tspan6"><tspan
             dx="0 27.097473 24.925705 20.319984"
             id="tspan5">Last</tspan></tspan></text><text
         xml:space="preserve"
         style="font-style:normal;font-variant:normal;font-weight:bold;font-stretch:normal;font-size:50.8px;font-family:'Source Serif 4';-inkscape-font-specification:'Source Serif 4 Bold';text-align:start;writing-mode:lr-tb;direction:ltr;text-anchor:start;fill:#000000;fill-opacity:1;stroke:url(#linearGradient39);stroke-width:6.12276;stroke-linecap:square;stroke-linejoin:round;stroke-miterlimit:9.6;stroke-dasharray:none;paint-order:markers stroke fill"
         x="120.79285"
         y="237.01021"
         id="text4"><tspan
           sodipodi:role="line"
           id="tspan4"
           style="fill:#000000;fill-opacity:1;stroke:url(#linearGradient39);stroke-width:6.12276;stroke-linecap:square;stroke-linejoin:round;stroke-miterlimit:9.6;stroke-dasharray:none;paint-order:markers stroke fill"
           x="120.79285"
           y="237.01021" /></text><path
         style="font-weight:800;font-size:37.1448px;line-height:31.13px;font-family:'Source Serif 4';-inkscape-font-specification:'Source Serif 4 Ultra-Bold';fill:#000000;fill-opacity:1;stroke:url(#linearGradient6);stroke-width:6.12276;stroke-linecap:square;stroke-linejoin:round;stroke-miterlimit:9.6;stroke-dasharray:none;paint-order:markers stroke fill"
         d="m 40.911543,225.33219 v -1.32535 l 7.14877,-0.86435 h 5.430316 v 2.1897 z m 4.193026,0 q 0.13748,-2.24732 0.206217,-5.24374 0.137479,-3.05403 0.137479,-6.33853 0.06872,-3.28455 0.06872,-6.22333 v -2.47782 q 0,-2.99639 -0.06872,-6.10806 0,-3.16927 -0.06875,-6.10808 -0.06872,-2.93877 -0.206213,-5.2437 h 11.273061 q -0.137479,2.30493 -0.206212,5.2437 -0.06874,2.93881 -0.13748,6.10808 0,3.16929 0,6.10806 v 2.47782 q 0,2.93878 0,6.22333 0.06874,3.2845 0.13748,6.33853 0.06872,2.99642 0.206212,5.24374 z m 5.911486,0 v -1.55585 h 17.32202 l -2.405836,0.86435 5.430317,-11.12128 h 1.580979 l -0.824859,11.81278 z M 40.911543,188.91425 v -1.32532 h 19.796594 v 1.32532 l -7.14877,0.92199 h -5.499054 z m 34.094152,36.41794 v -1.32535 l 4.742934,-0.57622 h 1.237287 l 5.361578,0.57622 v 1.32535 z m 3.436909,0 14.160065,-37.80088 h 5.911484 l 14.228797,37.80088 H 101.33241 L 90.609262,194.84946 h 1.168547 l -0.274952,0.80672 -10.723154,29.67601 z m 5.842743,-12.27377 v -1.55583 h 18.765523 v 1.55583 z m 11.616754,12.27377 v -1.32535 l 7.698669,-0.86435 h 6.73634 l 5.77401,0.86435 v 1.32535 z m 37.049789,0.92197 q -3.36817,0 -6.53012,-0.80674 -3.09322,-0.74908 -6.04897,-2.18968 l 0.54991,-8.93162 h 1.58098 l 4.39924,10.31457 -3.23069,-1.78631 -0.27496,-0.69146 q 1.71846,0.97957 3.09322,1.55581 1.4435,0.57622 2.88701,0.80672 1.4435,0.17289 3.09322,0.17289 2.26835,0 4.12428,-0.80674 1.92468,-0.86436 3.02449,-2.36255 1.16854,-1.55586 1.16854,-3.68789 0,-1.9592 -1.09981,-3.28454 -1.03106,-1.38295 -2.81825,-2.42017 -1.78721,-1.09485 -3.84935,-2.01682 l -1.9934,-0.86436 q -2.47458,-1.15245 -4.81168,-2.59302 -2.26837,-1.49822 -3.78059,-3.63029 -1.4435,-2.13204 -1.4435,-5.30134 0,-3.11167 1.71844,-5.58944 1.71846,-2.47782 5.15537,-3.97602 3.50565,-1.4982 8.4548,-1.4982 3.29943,0 6.04896,0.80672 2.81826,0.8067 4.67419,1.95919 l -0.27495,8.70113 h -1.58098 l -4.53672,-10.02647 3.64312,1.15248 v 1.61345 q -1.92466,-1.38295 -3.64312,-2.01683 -1.64972,-0.63384 -3.84934,-0.63384 -2.26836,0 -4.05555,0.80672 -1.78719,0.80673 -2.88701,2.2473 -1.03107,1.44056 -1.03107,3.34214 0,1.90158 1.09981,3.28455 1.16855,1.38295 2.95575,2.42018 1.85592,1.03721 3.98682,2.01681 l 1.92466,0.86435 q 2.61205,1.21009 4.94914,2.65068 2.40584,1.38293 3.91809,3.51501 1.51223,2.07443 1.51223,5.35897 0,3.16927 -1.64971,5.81995 -1.58098,2.59304 -5.15536,4.14889 -3.57439,1.55582 -9.41714,1.55582 z m 27.32076,-0.92197 v -1.32535 l 7.5612,-0.86435 h 5.91148 l 7.49246,0.86435 v 1.32535 z m 4.81167,0 q 0.13741,-2.24732 0.20622,-5.24374 0.13741,-3.05403 0.13741,-6.33853 0.0688,-3.28455 0.0688,-6.22333 v -2.47782 q 0,-2.93877 -0.0688,-6.10806 0,-3.16927 -0.0688,-6.10808 -0.0688,-2.93877 -0.20622,-5.2437 h 11.27306 q -0.13741,2.30493 -0.2062,5.2437 -0.0688,2.93881 -0.13743,6.10808 0,3.16929 0,6.10806 v 2.47782 q 0,2.93878 0,6.22333 0.0688,3.2845 0.13743,6.33853 0.0688,2.99642 0.2062,5.24374 z m -13.06024,-26.50673 0.82486,-11.23653 h 35.8813 l 0.82489,11.23653 h -1.58099 l -5.49907,-10.54508 2.47457,0.922 h -28.32012 l 2.47458,-0.922 -5.49905,10.54508 z m 52.51612,26.50673 v -1.32535 l 7.14877,-0.86435 h 5.43031 v 2.1897 z m 4.19303,0 q 0.13758,-2.24732 0.20622,-5.24374 0.13741,-3.05403 0.13741,-6.33853 0.0687,-3.28455 0.0687,-6.22333 v -2.47782 q 0,-2.99639 -0.0687,-6.10806 0,-3.16927 -0.0688,-6.10808 -0.0687,-2.93877 -0.20621,-5.2437 h 11.2731 q -0.13758,2.30493 -0.20621,5.2437 -0.0687,2.93881 -0.13758,6.10808 0,3.16929 0,6.10806 v 2.47782 q 0,2.93878 0,6.22333 0.0688,3.2845 0.13758,6.33853 0.0687,2.99642 0.20621,5.24374 z m 5.91147,0 v -1.55585 h 17.32203 l -2.40584,0.86435 5.43033,-11.12128 h 1.58097 l -0.82486,11.81278 z m -10.1045,-36.41794 v -1.32532 h 19.79659 v 1.32532 l -7.14876,0.92199 h -5.49906 z m 44.7972,37.28228 q -3.71186,0 -5.98022,-1.72869 -2.26836,-1.78633 -2.26836,-4.898 0,-2.07443 1.23729,-3.7455 1.23729,-1.72871 3.9868,-3.1693 2.74954,-1.44057 7.28626,-2.53541 1.23728,-0.34575 2.95575,-0.7491 1.78717,-0.40335 3.64311,-0.80673 1.9247,-0.40336 3.50565,-0.7491 v 1.26772 q -2.40583,0.63384 -4.60544,1.21007 -2.13091,0.51861 -3.23072,0.92198 -1.44348,0.63388 -2.68079,1.44057 -1.23727,0.80674 -1.99341,2.01683 -0.68736,1.21009 -0.68736,2.9964 0,2.24733 1.16853,3.34217 1.16856,1.03722 2.95575,1.03722 1.03109,0 1.7872,-0.2305 0.82485,-0.23049 1.71845,-0.80672 0.96235,-0.57625 2.19962,-1.49821 l 0.5499,2.30493 h -2.06213 q -1.37477,1.67107 -2.81828,2.65068 -1.44348,0.92195 -3.09321,1.32532 -1.64971,0.40337 -3.57439,0.40337 z m 16.22222,0 q -3.43689,0 -5.22411,-1.21009 -1.78719,-1.26771 -2.13088,-3.22692 v -0.23047 -14.52108 q 0,-2.82354 -0.41244,-4.37936 -0.41241,-1.61346 -1.51222,-2.24732 -1.03109,-0.69149 -3.02449,-0.69149 -0.8936,0 -1.85592,0.2305 -0.96235,0.17288 -1.71847,0.51863 l 2.06214,-1.61347 -0.27495,4.03364 q -0.13758,2.99642 -1.71845,4.14887 -1.58099,1.09485 -3.29943,1.09485 -1.64971,0 -2.68079,-0.69147 -1.03109,-0.6915 -1.51224,-2.07446 0.27496,-3.22689 4.05554,-5.24371 3.84934,-2.07443 10.17325,-2.07443 4.1243,0 6.73635,1.09485 2.61207,1.09483 3.78061,3.39975 1.23727,2.24732 1.23727,5.87758 v 12.90761 q 0,0.69148 0.3437,1.09485 0.41244,0.34573 1.03107,0.34573 0.68739,0 1.16856,-0.28811 0.48116,-0.28809 1.16853,-0.97959 l 1.03108,0.63385 q -0.82485,1.90157 -2.74953,2.99643 -1.92466,1.09483 -4.67418,1.09483 z m 9.29821,-0.86434 v -1.32535 l 3.29944,-0.51861 q 0.0687,-1.49821 0.0687,-3.16928 0.0688,-1.67107 0.0688,-3.39977 0.0687,-1.72869 0.0687,-3.22691 v -25.41189 l -3.78059,-0.92195 v -1.09483 l 12.99151,-2.88117 1.03108,0.69145 -0.27495,11.92805 v 7.14528 h 0.1374 v 17.51747 0.11525 5.30133 z m 21.92749,0.86434 q -1.92467,0 -3.64311,-0.63386 -1.71845,-0.63385 -3.16199,-1.95919 -1.37475,-1.38296 -2.5433,-3.57264 h -0.82485 l 0.68738,-0.92197 q 1.44349,1.55581 2.54331,2.2473 1.0998,0.63385 2.81827,0.63385 1.64972,0 2.95573,-1.0372 1.37476,-1.03722 2.19962,-3.28455 0.8936,-2.30492 0.8936,-5.87757 0,-5.30133 -1.71846,-7.43339 -1.71845,-2.13206 -4.39923,-2.13206 -1.03106,0 -1.92466,0.46097 -0.8936,0.40338 -1.71847,1.09486 -0.82485,0.69146 -1.58098,1.61345 l -0.48116,-1.15248 h 0.61864 q 1.03107,-1.9592 2.47456,-3.34213 1.51226,-1.38297 3.43692,-2.13208 1.92468,-0.74909 4.19305,-0.74909 3.57437,0 6.18643,1.4982 2.61205,1.4982 4.05554,4.4946 1.44349,2.9388 1.44349,7.26055 0,4.60986 -1.58098,7.95202 -1.51223,3.34215 -4.33049,5.18608 -2.81827,1.78633 -6.59886,1.78633 z"
         id="text5"
         aria-label="LAST Lab"
         inkscape:export-filename="LAST_Lab_logotipo_300ppp_blanco.png"
         inkscape:export-xdpi="300"
         inkscape:export-ydpi="300" /><path
         style="font-weight:800;font-size:9.81026px;line-height:1.25;font-family:'Source Serif 4';-inkscape-font-specification:'Source Serif 4 Ultra-Bold';fill:#000000;fill-opacity:1;stroke:url(#linearGradient7);stroke-width:6.12276;stroke-linecap:square;stroke-linejoin:round;stroke-miterlimit:9.6;stroke-dasharray:none;paint-order:markers stroke fill"
         d="m 40.084338,243.41784 v -0.3586 l 1.470829,-0.23386 h 1.701199 l 1.736641,0.23386 v 0.3586 z m 0.815158,0 q 0.05316,-0.40535 0.07087,-0.96663 0.0177,-0.56129 0.0177,-1.15374 0.0177,-0.60806 0.0177,-1.13816 v -3.41446 h -0.992367 v -0.35859 l 1.470829,-0.28064 -0.460741,0.53008 0.05316,-0.59245 q 0.05318,-0.76396 0.248093,-1.38761 0.194929,-0.62364 0.478461,-1.10696 0.301255,-0.48333 0.691114,-0.79514 0.549344,-0.43656 1.205015,-0.63925 0.65567,-0.20269 1.399945,-0.20269 0.691112,0 1.311342,0.26508 0.637949,0.26502 0.779715,0.8575 -0.0177,0.42095 -0.336695,0.62363 -0.318975,0.18709 -0.744274,0.18709 -0.460741,0 -0.83288,-0.23386 -0.354417,-0.23387 -0.708832,-0.77955 l -0.4253,-0.62365 v -0.0937 h 0.407579 v 0.0937 q -0.05316,0.0153 -0.141766,0.0468 -0.07087,0.0153 -0.194927,0.17149 -0.248092,0.34301 -0.407581,0.73279 -0.141764,0.38976 -0.212649,0.88868 -0.05316,0.48333 -0.05316,1.07579 0.0177,0.59246 0.05316,1.37204 v 3.66389 q 0,0.53011 0,1.13816 0.0177,0.59245 0.03545,1.15374 0.0177,0.56129 0.07087,0.96664 z m 1.506269,-6.67299 v -0.48334 h 2.95938 v 0.48334 z m 7.889779,6.90687 q -1.34678,0 -2.285987,-0.48332 -0.921481,-0.48332 -1.399944,-1.34083 -0.478462,-0.85751 -0.478462,-1.98009 0,-1.12257 0.513905,-1.98008 0.531625,-0.87309 1.470826,-1.35641 0.939204,-0.48333 2.179662,-0.48333 1.364503,0 2.285987,0.48333 0.939205,0.48332 1.399945,1.34082 0.478463,0.85751 0.478463,1.98009 0,1.10696 -0.531624,1.98007 -0.531625,0.87311 -1.47083,1.35643 -0.939203,0.48332 -2.161941,0.48332 z m 0,-0.42098 q 0.443022,0 0.744275,-0.29622 0.301255,-0.29623 0.460741,-1.02901 0.177205,-0.73278 0.177205,-2.07361 0,-1.34084 -0.177205,-2.07363 -0.159488,-0.73278 -0.460741,-1.01342 -0.301253,-0.29623 -0.744275,-0.29623 -0.443018,0 -0.744272,0.29623 -0.301254,0.29622 -0.460742,1.04461 -0.159489,0.73277 -0.159489,2.05802 0,1.32525 0.159489,2.07363 0.159488,0.73277 0.460742,1.02899 0.301254,0.28064 0.744272,0.28064 z m 5.121326,0.1871 v -0.3586 l 1.470829,-0.23386 h 1.488548 l 1.612596,0.23386 v 0.3586 z m 0.815157,0 q 0.05316,-0.40535 0.07087,-0.96663 0.0177,-0.56129 0.0177,-1.15374 0.0177,-0.60806 0.0177,-1.13816 v -0.42096 q 0,-0.49894 0,-0.88869 0,-0.38979 -0.0177,-0.73279 0,-0.34301 -0.0177,-0.70161 l -0.956923,-0.24945 v -0.29624 l 3.331514,-0.84191 0.248093,0.1715 v 1.94889 0.0623 1.94888 q 0,0.5301 0,1.13815 0.0177,0.59246 0.03545,1.15375 0.0177,0.56127 0.07088,0.96665 z m 2.622684,-4.34992 -0.265811,-0.7172 h 0.248089 q 0.283535,-0.79512 0.62023,-1.29403 0.354416,-0.51453 0.797436,-0.76399 0.443023,-0.26504 0.974647,-0.26504 0.567066,0 0.939203,0.26504 0.389858,0.26505 0.496184,0.84192 -0.05316,0.60807 -0.443023,0.88869 -0.372136,0.28066 -0.88604,0.28066 -0.40758,0 -0.744276,-0.17151 -0.336695,-0.1871 -0.620228,-0.68601 l -0.265812,-0.48331 0.425299,0.0936 q -0.336695,0.24946 -0.744275,0.82634 -0.389857,0.57686 -0.531623,1.18491 z m 11.731204,4.5838 q -1.08097,0 -1.96701,-0.42098 -0.868321,-0.42095 -1.382224,-1.24727 -0.513903,-0.84194 -0.513903,-2.04245 0,-1.27847 0.549344,-2.15156 0.549345,-0.87311 1.50627,-1.30965 0.956924,-0.45215 2.215103,-0.45215 0.88604,0 1.48855,0.28063 0.620228,0.26507 0.956923,0.7172 0.336697,0.43656 0.354416,0.98223 -0.124042,0.38979 -0.389856,0.57688 -0.265812,0.1715 -0.691114,0.1715 -0.460739,0 -0.832879,-0.29623 -0.354415,-0.31182 -0.407578,-1.10697 l -0.07087,-1.12256 1.134132,0.51451 q -0.336696,-0.15589 -0.63795,-0.21828 -0.301253,-0.0779 -0.67339,-0.0779 -0.40758,0 -0.83288,0.29622 -0.407581,0.28065 -0.67339,0.96666 -0.265813,0.67041 -0.265813,1.83974 0,0.91987 0.265813,1.55911 0.283534,0.63922 0.797435,0.98225 0.513904,0.34302 1.25818,0.34302 0.354417,0 0.655671,-0.0779 0.301254,-0.0936 0.567067,-0.24947 0.283531,-0.17151 0.513903,-0.37418 l 0.265812,0.20267 q -0.336697,0.60806 -0.815159,0.98225 -0.47846,0.37419 -1.080969,0.54569 -0.584787,0.18711 -1.293621,0.18711 z m 4.114209,-0.23388 v -0.3586 l 1.470829,-0.23386 h 1.48855 l 1.612596,0.23386 v 0.3586 z m 0.815159,0 q 0.05317,-0.40535 0.07087,-0.96663 0.0177,-0.56129 0.0177,-1.15374 0.0177,-0.60806 0.0177,-1.13816 v -0.42096 q 0,-0.49894 0,-0.88869 0,-0.38979 -0.0177,-0.73279 0,-0.34301 -0.0177,-0.70161 l -0.956924,-0.24945 v -0.29624 l 3.331515,-0.84191 0.24809,0.1715 v 1.94889 0.0623 1.94888 q 0,0.5301 0,1.13815 0.0177,0.59246 0.03545,1.15375 0.0177,0.56127 0.07087,0.96665 z m 2.622682,-4.34992 -0.265812,-0.7172 h 0.248091 q 0.283534,-0.79512 0.62023,-1.29403 0.354415,-0.51453 0.797437,-0.76399 0.44302,-0.26504 0.974646,-0.26504 0.567063,0 0.939203,0.26504 0.389856,0.26505 0.496181,0.84192 -0.05316,0.60807 -0.443018,0.88869 -0.372139,0.28066 -0.886042,0.28066 -0.407578,0 -0.744275,-0.17151 -0.336695,-0.1871 -0.620227,-0.68601 l -0.265814,-0.48331 0.425299,0.0936 q -0.336695,0.24946 -0.744274,0.82634 -0.389859,0.57686 -0.531625,1.18491 z m 4.377042,4.34992 v -0.3586 l 1.47083,-0.23386 h 1.48855 l 1.399943,0.23386 v 0.3586 z m 0.815159,0 q 0.05317,-0.40535 0.07087,-0.96663 0.0177,-0.56129 0.0177,-1.15374 0.0177,-0.60806 0.0177,-1.13816 v -0.40538 q 0,-0.76396 0,-1.27847 0,-0.5145 -0.03545,-1.0602 l -0.956925,-0.24945 v -0.29624 l 3.402399,-0.84191 0.248093,0.1715 -0.07087,2.07361 v 1.88654 q 0,0.5301 0,1.13816 0.0177,0.59245 0.03545,1.15374 0.0177,0.56128 0.07087,0.96663 z m 1.399947,-8.46596 q -0.531626,0 -0.921484,-0.31183 -0.389859,-0.31182 -0.389859,-0.81074 0,-0.49891 0.389859,-0.81074 0.389858,-0.31183 0.921484,-0.31183 0.549344,0 0.921482,0.31183 0.372138,0.31183 0.372138,0.79516 0,0.5145 -0.372138,0.82632 -0.372138,0.31183 -0.921482,0.31183 z m 5.121311,1.79297 v -0.48334 h 3.012539 v 0.48334 z m 1.027807,6.90687 q -1.134134,0 -1.772083,-0.48332 -0.637949,-0.49894 -0.637949,-1.54354 0,-0.5145 -0.0177,-0.88868 0,-0.38978 0.0177,-1.01342 l 0.03545,-2.97791 h -0.992366 v -0.35859 l 1.488549,-0.28064 -0.567066,0.343 1.825246,-2.55694 h 0.903761 l -0.07087,2.55694 v 0.1715 5.03593 q 0,0.54568 0.265812,0.76397 0.283535,0.20269 0.655672,0.20269 0.354417,0 0.584786,-0.10908 0.230372,-0.10908 0.443022,-0.32742 l 0.265813,0.17151 q -0.194929,0.42096 -0.531625,0.71719 -0.318975,0.28065 -0.797438,0.42096 -0.460742,0.15586 -1.098691,0.15586 z m 3.004373,-0.23388 v -0.3586 l 1.470827,-0.23386 h 1.488551 l 1.399945,0.23386 v 0.3586 z m 0.815158,0 q 0.05316,-0.40535 0.07087,-0.96663 0.0177,-0.56129 0.0177,-1.15374 0.0177,-0.60806 0.0177,-1.13816 v -0.40538 q 0,-0.76396 0,-1.27847 0,-0.5145 -0.03545,-1.0602 l -0.956924,-0.24945 v -0.29624 l 3.402398,-0.84191 0.248092,0.1715 -0.07088,2.07361 v 1.88654 q 0,0.5301 0,1.13816 0.0177,0.59245 0.03545,1.15374 0.0177,0.56128 0.07087,0.96663 z m 1.399945,-8.46596 q -0.531624,0 -0.921484,-0.31183 -0.389856,-0.31182 -0.389856,-0.81074 0,-0.49891 0.389856,-0.81074 0.38986,-0.31183 0.921484,-0.31183 0.549346,0 0.921482,0.31183 0.372137,0.31183 0.372137,0.79516 0,0.5145 -0.372137,0.82632 -0.372136,0.31183 -0.921482,0.31183 z m 6.822523,8.69984 q -1.08097,0 -1.96702,-0.42098 -0.86831,-0.42095 -1.382215,-1.24727 -0.513903,-0.84194 -0.513903,-2.04245 0,-1.27847 0.549344,-2.15156 0.549344,-0.87311 1.506264,-1.30965 0.95693,-0.45215 2.21511,-0.45215 0.88603,0 1.48854,0.28063 0.62023,0.26507 0.95693,0.7172 0.3367,0.43656 0.35442,0.98223 -0.12405,0.38979 -0.38987,0.57688 -0.26581,0.1715 -0.69111,0.1715 -0.46074,0 -0.83288,-0.29623 -0.35441,-0.31182 -0.40758,-1.10697 l -0.0709,-1.12256 1.13413,0.51451 q -0.33669,-0.15589 -0.63795,-0.21828 -0.30126,-0.0779 -0.67339,-0.0779 -0.40758,0 -0.83288,0.29622 -0.40758,0.28065 -0.67338,0.96666 -0.26582,0.67041 -0.26582,1.83974 0,0.91987 0.26582,1.55911 0.28352,0.63922 0.79742,0.98225 0.51391,0.34302 1.25819,0.34302 0.35441,0 0.65567,-0.0779 0.30125,-0.0936 0.56706,-0.24947 0.28354,-0.17151 0.51391,-0.37418 l 0.26581,0.20267 q -0.33669,0.60806 -0.81516,0.98225 -0.47846,0.37419 -1.08097,0.54569 -0.58479,0.18711 -1.29361,0.18711 z m 6.23594,0 q -0.95693,0 -1.54171,-0.46773 -0.58479,-0.48333 -0.58479,-1.32526 0,-0.56126 0.31897,-1.01342 0.31898,-0.46774 1.02781,-0.8575 0.70884,-0.38979 1.87841,-0.68603 0.31898,-0.0937 0.762,-0.20267 0.46074,-0.10908 0.9392,-0.21826 0.49619,-0.10908 0.90376,-0.2027 v 0.34301 q -0.62023,0.1715 -1.18729,0.32741 -0.54935,0.14029 -0.83289,0.24945 -0.37213,0.1715 -0.69111,0.38979 -0.31897,0.21827 -0.5139,0.54567 -0.1772,0.32741 -0.1772,0.81074 0,0.60807 0.30126,0.90429 0.30125,0.28066 0.76199,0.28066 0.26581,0 0.46074,-0.0623 0.21265,-0.0623 0.44302,-0.21829 0.24809,-0.15588 0.56707,-0.40537 l 0.14176,0.62366 h -0.53162 q -0.35442,0.45213 -0.72656,0.71717 -0.37213,0.24946 -0.79744,0.35859 -0.42529,0.10908 -0.92148,0.10908 z m 4.18212,0 q -0.88604,0 -1.34678,-0.32743 -0.46075,-0.34298 -0.54935,-0.87308 v -0.0623 -3.92896 q 0,-0.76398 -0.10632,-1.18493 -0.10632,-0.43656 -0.38986,-0.60806 -0.2658,-0.1871 -0.77971,-0.1871 -0.23037,0 -0.47847,0.0623 -0.24809,0.0468 -0.44301,0.1403 l 0.53162,-0.43656 -0.0709,1.09137 q -0.0355,0.81074 -0.44303,1.12256 -0.40758,0.29624 -0.8506,0.29624 -0.4253,0 -0.69111,-0.1871 -0.26582,-0.18709 -0.38986,-0.56127 0.0709,-0.87312 1.04553,-1.41879 0.99237,-0.56129 2.62268,-0.56129 1.06325,0 1.73665,0.29624 0.67337,0.29622 0.97464,0.91989 0.31897,0.60803 0.31897,1.59027 v 3.49241 q 0,0.1871 0.0886,0.29624 0.10636,0.0937 0.26582,0.0937 0.17721,0 0.30126,-0.0781 0.12404,-0.0779 0.30125,-0.26503 l 0.26581,0.1715 q -0.21264,0.5145 -0.70884,0.81073 -0.49617,0.29624 -1.20501,0.29624 z m 2.32621,-0.23388 v -0.3586 l 1.47083,-0.23386 h 1.48854 l 1.39996,0.23386 v 0.3586 z m 0.81516,0 q 0.0531,-0.40535 0.0709,-0.96663 0.0177,-0.56129 0.0177,-1.15374 0.0177,-0.60806 0.0177,-1.13816 v -6.76655 l -0.99236,-0.24945 v -0.29622 l 3.40241,-0.77959 0.24807,0.18711 -0.0709,3.16498 v 4.73972 q 0,0.5301 0,1.13816 0.0177,0.59245 0.0355,1.15374 0.0177,0.56128 0.0709,0.96663 z m 7.56678,0 v -0.3586 l 1.22274,-0.15587 h 0.31898 l 1.38223,0.15587 v 0.3586 z m 0.88605,0 3.6505,-10.22777 h 1.52399 l 3.6682,10.22777 h -2.94165 l -2.76445,-8.24769 h 0.30125 l -0.0709,0.21827 -2.76444,8.02942 z m 1.50627,-3.32091 v -0.42095 h 4.83779 v 0.42095 z m 2.99481,3.32091 v -0.3586 l 1.98474,-0.23386 h 1.73665 l 1.48855,0.23386 v 0.3586 z m 5.7947,0 v -0.3586 l 1.84296,-0.23386 h 1.41767 l 1.84297,0.23386 v 0.3586 z m 1.08097,0 q 0.0355,-0.60805 0.0531,-1.41879 0.0355,-0.82632 0.0355,-1.71503 0.0177,-0.88867 0.0177,-1.68383 v -0.67042 q 0,-0.79515 -0.0177,-1.65267 0,-0.85751 -0.0355,-1.65264 -0.0177,-0.79515 -0.0531,-1.41881 h 2.94166 q -0.0355,0.62366 -0.0709,1.41881 -0.0177,0.79513 -0.0355,1.65264 0,0.85752 0,1.65267 v 0.67042 q 0,0.79516 0,1.68383 0.0177,0.88871 0.0355,1.71503 0.0177,0.81074 0.0531,1.41879 z m -1.08097,-9.85358 v -0.35861 h 5.1036 v 0.35861 l -1.84297,0.24947 h -1.41767 z m 12.79444,10.08746 q -1.13413,0 -1.89612,-0.3586 -0.76201,-0.3586 -1.15186,-0.91988 -0.37214,-0.57686 -0.37214,-1.20051 0,-0.74837 0.31898,-1.29407 0.31897,-0.56129 1.0278,-0.98224 0.72655,-0.43655 1.87841,-0.81075 l 0.0533,0.0312 0.0533,0.0467 q -0.3367,0.28064 -0.54933,0.63923 -0.19494,0.343 -0.28353,0.74837 -0.0708,0.40537 -0.0708,0.85751 0,0.73278 0.28353,1.21611 0.30125,0.48331 0.79744,0.71717 0.51388,0.23389 1.11639,0.23389 0.62023,0 1.08097,-0.15588 0.47846,-0.17152 0.79744,-0.5145 l 0.21266,0.0779 0.21264,0.0468 q -0.26582,0.38976 -0.69111,0.76395 -0.42529,0.37419 -1.11641,0.62363 -0.6911,0.23388 -1.7012,0.23388 z m 4.35931,-2.2763 -0.42529,-0.42099 h 0.19494 q 0.46073,-0.65481 0.72654,-1.2005 0.28353,-0.56127 0.44302,-1.15374 0.17722,-0.60807 0.31898,-1.37202 h 0.79744 q -0.24809,0.8575 -0.51391,1.54354 -0.24809,0.67041 -0.60251,1.29405 -0.35441,0.60805 -0.93921,1.30966 z m 1.38223,-4.02252 -1.61258,-0.18709 v -0.34301 h 3.63276 v 0.34301 l -1.59487,0.18709 z m 0.19493,6.29882 q -0.47846,0 -0.90376,-0.0779 -0.4253,-0.0781 -0.81516,-0.24946 -0.37213,-0.18709 -0.77972,-0.5145 -0.67338,-0.5457 -1.27588,-1.18493 -0.5848,-0.65483 -1.06325,-1.21611 -0.5848,-0.68601 -0.97466,-1.12256 -0.38986,-0.45213 -0.63795,-0.74836 -0.24809,-0.31181 -0.4253,-0.51453 -0.37214,-0.45212 -0.60249,-0.85749 -0.21266,-0.42096 -0.31899,-0.81074 -0.10635,-0.38977 -0.10635,-0.77956 0,-0.79515 0.40757,-1.37201 0.40758,-0.59248 1.13413,-0.91989 0.72656,-0.32741 1.7012,-0.32741 1.43538,0 2.16195,0.59249 0.74427,0.59245 0.74427,1.46554 0,0.85752 -0.6734,1.44998 -0.65567,0.57686 -2.03789,1.09137 l -0.0886,-0.14028 -0.0708,-0.15589 q 0.56707,-0.686 0.76198,-1.29405 0.21266,-0.62365 0.21266,-1.12257 0,-0.67041 -0.26581,-1.0602 -0.26581,-0.40535 -0.77971,-0.40535 -0.46073,0 -0.762,0.37418 -0.28353,0.3742 -0.28353,1.04461 0,0.21827 0.0355,0.46775 0.0533,0.23384 0.15943,0.5145 0.12403,0.26504 0.35441,0.57686 0.1418,0.20269 0.35441,0.46772 0.23038,0.26507 0.65568,0.73279 0.4253,0.46771 1.18728,1.26289 0.56706,0.60806 1.09871,1.16933 0.53163,0.54568 1.0278,1.07578 0.49618,0.5301 0.99237,1.04461 0.49619,0.49891 1.01009,1.02901 l -1.84298,-0.48332 2.60496,0.40537 v 0.35859 q -0.62022,0.14028 -1.06325,0.1871 -0.44301,0.0468 -0.83286,0.0468 z m 9.26802,0 q -0.92149,0 -1.59488,-0.40539 -0.67339,-0.40536 -1.04553,-1.21609 -0.37215,-0.81073 -0.37215,-1.96448 0,-1.24729 0.42532,-2.15157 0.443,-0.90429 1.18728,-1.38762 0.762,-0.49891 1.75438,-0.49891 0.47846,0 0.88603,0.1715 0.40757,0.1715 0.74428,0.54569 0.35442,0.3586 0.63795,0.95105 h 0.21265 l -0.24811,0.24946 q -0.35441,-0.40537 -0.63795,-0.57687 -0.2658,-0.18709 -0.72655,-0.18709 -0.40757,0 -0.76199,0.26505 -0.33669,0.26505 -0.54934,0.87311 -0.19492,0.59245 -0.19492,1.62146 0,0.96666 0.17719,1.54353 0.19493,0.56128 0.53162,0.79514 0.35444,0.23389 0.79744,0.23389 0.40759,0 0.74428,-0.24949 0.33669,-0.24946 0.62022,-0.60804 l 0.12403,0.31183 h -0.15942 q -0.24811,0.5301 -0.63796,0.90426 -0.37215,0.37419 -0.85059,0.57689 -0.46074,0.20269 -1.06326,0.20269 z m 2.30369,-0.0312 v -1.35644 -0.0781 -4.67732 l 0.0178,-0.18709 v -3.92896 l -0.97465,-0.24947 v -0.29621 l 3.34923,-0.77958 0.26581,0.18711 -0.0708,3.22735 v 7.45254 l 0.85059,0.1247 v 0.35858 z m 4.19985,-0.20269 v -0.3586 l 1.47082,-0.23387 h 1.48857 l 1.39993,0.23387 v 0.3586 z m 0.81517,0 q 0.0533,-0.40535 0.0708,-0.96664 0.0178,-0.56129 0.0178,-1.15374 0.0177,-0.60807 0.0177,-1.13816 v -0.40536 q 0,-0.76397 0,-1.27849 0,-0.5145 -0.0355,-1.0602 l -0.95693,-0.24943 v -0.29625 l 3.4024,-0.84191 0.2481,0.1715 -0.0708,2.07361 v 1.88653 q 0,0.53009 0,1.13816 0.0178,0.59245 0.0355,1.15374 0.0178,0.56129 0.0708,0.96664 z m 1.39994,-8.46598 q -0.53164,0 -0.92149,-0.31182 -0.38986,-0.31182 -0.38986,-0.81073 0,-0.49892 0.38986,-0.81075 0.38985,-0.31183 0.92149,-0.31183 0.54933,0 0.92148,0.31183 0.37213,0.31183 0.37213,0.79516 0,0.5145 -0.37213,0.82632 -0.37215,0.31182 -0.92148,0.31182 z m 6.27314,12.25464 q -1.38222,0 -2.16193,-0.2183 -0.77972,-0.20268 -1.09869,-0.56127 -0.30126,-0.35859 -0.30126,-0.81073 0,-0.51451 0.37215,-0.82635 0.38984,-0.29623 0.97465,-0.46771 0.58478,-0.17152 1.15184,-0.29627 l 0.0708,0.0468 q -0.30125,0.21827 -0.53163,0.40537 -0.21266,0.20268 -0.31898,0.42098 -0.10624,0.21825 -0.10624,0.53007 0,0.37419 0.19494,0.68601 0.21263,0.32743 0.65567,0.51453 0.44302,0.18709 1.1873,0.18709 0.88602,0 1.48854,-0.23388 0.62024,-0.21828 0.92148,-0.57687 0.319,-0.35859 0.319,-0.79514 0,-0.51451 -0.42533,-0.76397 -0.40758,-0.23385 -1.16957,-0.23385 h -1.80752 q -0.14181,0 -0.31898,-0.0153 -0.17719,0 -0.3544,-0.0153 l -0.0887,-0.0153 q -0.70882,-0.0937 -1.29361,-0.48333 -0.56708,-0.37419 -0.56708,-1.09138 0,-0.76396 0.54936,-1.29406 0.56706,-0.5301 1.2759,-0.93548 v -0.17151 l 0.28353,0.34301 q -0.21266,0.1247 -0.42529,0.35859 -0.21266,0.23388 -0.21266,0.59248 0,0.32741 0.31899,0.49891 0.33668,0.17151 0.95691,0.17151 h 2.23282 q 0.97463,0 1.63031,0.26505 0.65567,0.24945 0.99238,0.71719 0.33669,0.46774 0.33669,1.13816 0,0.54567 -0.30125,1.06017 -0.28354,0.53009 -0.86832,0.95107 -0.58477,0.42096 -1.47083,0.67042 -0.88605,0.24946 -2.09106,0.24946 z m 0.30127,-6.23647 q -1.15185,0 -1.89611,-0.3274 -0.7443,-0.32742 -1.11643,-0.88869 -0.35442,-0.57688 -0.35442,-1.29407 0,-0.71719 0.38987,-1.26289 0.40757,-0.56129 1.16956,-0.85751 0.762,-0.31181 1.80753,-0.31181 0.74429,0 1.31135,0.14029 0.56707,0.14029 0.97463,0.38978 0.40759,0.24945 0.63795,0.59246 l 0.0532,0.0781 q 0.19492,0.26505 0.28353,0.59246 0.0885,0.32741 0.0885,0.7172 0,0.70159 -0.40757,1.26286 -0.38985,0.5457 -1.15186,0.85754 -0.74428,0.31181 -1.7898,0.31181 z m 0,-0.38977 q 0.30125,0 0.53163,-0.2027 0.23035,-0.20267 0.33669,-0.65482 0.12403,-0.46772 0.12403,-1.23169 0,-0.77956 -0.12403,-1.23169 -0.10635,-0.45217 -0.33669,-0.63924 -0.23038,-0.20268 -0.53163,-0.20268 -0.31899,0 -0.54934,0.20268 -0.21266,0.18707 -0.33671,0.63924 -0.12402,0.45213 -0.12402,1.23169 0,0.77955 0.12402,1.24729 0.12403,0.45214 0.33671,0.65481 0.23035,0.18711 0.54934,0.18711 z m 2.6227,-3.07147 -0.1242,-0.35859 h 0.0708 l 1.96698,-1.12254 0.21267,0.1247 v 1.35642 z m 2.89806,5.90905 v -0.3586 l 1.47082,-0.23387 h 1.48854 l 1.39996,0.23387 v 0.3586 z m 0.81514,0 q 0.0533,-0.40535 0.0708,-0.96664 0.0181,-0.56129 0.0181,-1.15374 0.0181,-0.60807 0.0181,-1.13816 v -0.40536 q 0,-0.76397 0,-1.27849 0,-0.5145 -0.0355,-1.0602 l -0.95691,-0.24943 v -0.29625 l 3.4024,-0.84191 0.24809,0.1715 -0.0708,2.07361 v 1.88653 q 0,0.53009 0,1.13816 0.0181,0.59245 0.0355,1.15374 0.0181,0.56129 0.0708,0.96664 z m 1.39995,-8.46598 q -0.53163,0 -0.92148,-0.31182 -0.38987,-0.31182 -0.38987,-0.81073 0,-0.49892 0.38987,-0.81075 0.38985,-0.31183 0.92148,-0.31183 0.54935,0 0.92148,0.31183 0.37215,0.31183 0.37215,0.79516 0,0.5145 -0.37215,0.82632 -0.37213,0.31182 -0.92148,0.31182 z m 5.12131,1.79298 v -0.48332 h 3.01253 v 0.48332 z m 1.0278,6.90686 q -1.13412,0 -1.77208,-0.48332 -0.63796,-0.49893 -0.63796,-1.54353 0,-0.5145 -0.0181,-0.88867 0,-0.38979 0.0181,-1.01344 l 0.0355,-2.9779 h -0.99236 v -0.3586 l 1.48855,-0.28062 -0.56708,0.343 1.82526,-2.55696 h 0.90376 l -0.0708,2.55696 v 0.1715 5.03592 q 0,0.54568 0.26581,0.76398 0.28354,0.20268 0.65568,0.20268 0.35442,0 0.58477,-0.10908 0.23038,-0.10908 0.44305,-0.32743 l 0.2658,0.17152 q -0.19494,0.42096 -0.53163,0.71718 -0.31896,0.28065 -0.79744,0.42096 -0.46074,0.15587 -1.0987,0.15587 z m 5.22248,0 q -0.95692,0 -1.5417,-0.46771 -0.58481,-0.48334 -0.58481,-1.32526 0,-0.56127 0.31898,-1.01343 0.31898,-0.46774 1.02782,-0.8575 0.70883,-0.38978 1.87842,-0.68602 0.31895,-0.0937 0.76198,-0.20268 0.46073,-0.10908 0.93919,-0.21826 0.49619,-0.10908 0.90376,-0.20271 v 0.34302 q -0.62021,0.1715 -1.18729,0.32741 -0.54933,0.14029 -0.83288,0.24946 -0.37213,0.1715 -0.6911,0.38978 -0.31899,0.21826 -0.5139,0.54568 -0.1772,0.32741 -0.1772,0.81073 0,0.60808 0.30126,0.90429 0.30123,0.28066 0.76199,0.28066 0.26582,0 0.46074,-0.0623 0.21265,-0.0623 0.443,-0.21828 0.24814,-0.15589 0.56709,-0.40538 l 0.14182,0.62366 h -0.53162 q -0.35443,0.45214 -0.72655,0.71719 -0.37214,0.24945 -0.79745,0.35857 -0.42529,0.10908 -0.92148,0.10908 z m 4.18211,0 q -0.88604,0 -1.34678,-0.32741 -0.46074,-0.343 -0.54936,-0.87309 v -0.0623 -3.92896 q 0,-0.76396 -0.10646,-1.18492 -0.10635,-0.43657 -0.38984,-0.60807 -0.26584,-0.18707 -0.77975,-0.18707 -0.23035,0 -0.47844,0.0623 -0.2481,0.0468 -0.44301,0.14029 l 0.53161,-0.43656 -0.0708,1.09137 q -0.0355,0.81074 -0.44302,1.12257 -0.40758,0.29623 -0.85061,0.29623 -0.42529,0 -0.6911,-0.1871 -0.2658,-0.18708 -0.38987,-0.56128 0.0708,-0.87309 1.04555,-1.41878 0.99235,-0.56127 2.62269,-0.56127 1.06321,0 1.73662,0.29622 0.6734,0.29623 0.97465,0.91987 0.31898,0.60806 0.31898,1.5903 v 3.4924 q 0,0.18712 0.0886,0.29624 0.10635,0.0936 0.26583,0.0936 0.1772,0 0.30125,-0.0781 0.12402,-0.0779 0.30124,-0.26505 l 0.26582,0.1715 q -0.21264,0.5145 -0.70882,0.81072 -0.4962,0.29624 -1.20502,0.29624 z m 2.32623,-0.23386 v -0.3586 l 1.47083,-0.23387 h 1.48855 l 1.39994,0.23387 v 0.3586 z m 0.81515,0 q 0.053,-0.40535 0.0708,-0.96664 0.0182,-0.56129 0.0182,-1.15374 0.0181,-0.60807 0.0181,-1.13816 v -6.76654 l -0.99235,-0.24945 v -0.29625 l 3.40241,-0.77956 0.24807,0.18711 -0.0708,3.16497 v 4.73972 q 0,0.53009 0,1.13816 0.0181,0.59245 0.0355,1.15374 0.0181,0.56129 0.0708,0.96664 z m 9.95909,-6.673 v -0.48332 h 3.01253 v 0.48332 z m 1.02779,6.90686 q -1.13411,0 -1.77207,-0.48332 -0.63795,-0.49893 -0.63795,-1.54353 0,-0.5145 -0.0181,-0.88867 0,-0.38979 0.0181,-1.01344 l 0.0355,-2.9779 h -0.99237 v -0.3586 l 1.48856,-0.28062 -0.56706,0.343 1.82523,-2.55696 h 0.90377 l -0.0708,2.55696 v 0.1715 5.03592 q 0,0.54568 0.26582,0.76398 0.28353,0.20268 0.65564,0.20268 0.35446,0 0.58481,-0.10908 0.23037,-0.10908 0.44301,-0.32743 l 0.26581,0.17152 q -0.19491,0.42096 -0.53163,0.71718 -0.31896,0.28065 -0.79742,0.42096 -0.46075,0.15587 -1.09871,0.15587 z m 6.83547,0 q -1.08097,0 -1.98474,-0.42096 -0.88604,-0.43654 -1.41767,-1.26287 -0.51391,-0.82634 -0.51391,-2.02685 0,-1.30965 0.54936,-2.16716 0.56708,-0.87311 1.45311,-1.30965 0.90375,-0.43655 1.91385,-0.43655 1.04552,0 1.78979,0.3742 0.762,0.37417 1.15186,1.01339 0.38987,0.62365 0.38987,1.4344 0,0.24945 -0.0181,0.37417 0,0.12471 -0.0533,0.32743 h -6.13139 v -0.38978 h 2.55179 q 0.77971,0 1.06324,-0.23387 0.30126,-0.23386 0.30126,-0.9199 0,-0.59245 -0.12402,-0.91984 -0.12404,-0.34302 -0.35442,-0.48333 -0.21266,-0.15588 -0.51391,-0.15588 -0.35443,0 -0.63795,0.28063 -0.28353,0.28065 -0.44303,0.95107 -0.15943,0.67041 -0.15943,1.85533 0,0.93546 0.30127,1.5903 0.31895,0.63925 0.85059,0.98223 0.54935,0.32744 1.24046,0.32744 0.56705,0 1.01007,-0.18711 0.44304,-0.20268 0.79744,-0.51452 l 0.24811,0.20271 q -0.31898,0.60805 -0.81518,0.98223 -0.49617,0.37419 -1.11639,0.54569 -0.60252,0.18709 -1.32907,0.18709 z m 8.40445,0 q -1.08096,0 -1.96701,-0.42096 -0.8683,-0.42095 -1.38221,-1.24728 -0.51391,-0.84193 -0.51391,-2.04244 0,-1.27848 0.54933,-2.15157 0.54935,-0.87311 1.50628,-1.30967 0.95693,-0.45212 2.2151,-0.45212 0.88605,0 1.48854,0.28062 0.62024,0.26506 0.95692,0.7172 0.33672,0.43656 0.35442,0.98222 -0.12402,0.38982 -0.38984,0.57688 -0.26582,0.17151 -0.69113,0.17151 -0.46072,0 -0.83286,-0.29622 -0.35441,-0.31183 -0.40759,-1.10698 l -0.0708,-1.12256 1.13412,0.51451 q -0.33669,-0.15588 -0.63795,-0.21827 -0.30125,-0.0779 -0.6734,-0.0779 -0.40758,0 -0.83286,0.29623 -0.40758,0.28064 -0.6734,0.96665 -0.26582,0.67041 -0.26582,1.83973 0,0.91988 0.26582,1.55911 0.28353,0.63924 0.79744,0.98225 0.51391,0.34301 1.25818,0.34301 0.35441,0 0.65569,-0.0779 0.30122,-0.0936 0.56705,-0.24947 0.28353,-0.17151 0.51388,-0.37418 l 0.26584,0.20267 q -0.3367,0.60806 -0.81517,0.98225 -0.47846,0.37419 -1.08097,0.54569 -0.58478,0.18711 -1.29363,0.18711 z m 3.92926,-0.23386 v -0.3586 l 1.47081,-0.23387 h 1.48856 l 1.39994,0.23387 v 0.3586 z m 0.81516,0 q 0.053,-0.40535 0.0708,-0.96664 0.0181,-0.56129 0.0181,-1.15374 0.0181,-0.60807 0.0181,-1.13816 v -6.76654 l -0.99236,-0.24945 v -0.29625 l 3.40239,-0.77956 0.2481,0.18711 -0.0708,3.22735 v 2.1204 0.0312 2.52575 q 0,0.5301 0,1.13816 0.0182,0.59245 0.0355,1.15374 0.0181,0.56128 0.0708,0.96663 z m 4.21755,0 v -0.3586 l 1.39993,-0.23387 h 1.5063 l 1.39994,0.23387 v 0.3586 z m 0.76198,0 q 0.053,-0.40535 0.0711,-0.96664 0.0355,-0.56129 0.0355,-1.15374 0,-0.60807 0,-1.13816 v -1.69943 q 0,-0.65483 -0.2481,-0.90428 -0.24808,-0.24946 -0.72655,-0.24946 -0.30123,0 -0.63795,0.10907 -0.33668,0.10908 -0.67338,0.32741 -0.31898,0.21829 -0.60253,0.5301 l -0.0181,-0.43655 h 0.19494 q 0.44301,-0.63922 0.90376,-1.02901 0.47847,-0.40537 1.01008,-0.59246 0.54934,-0.18709 1.15185,-0.18709 1.01009,0 1.61261,0.57688 0.62022,0.56127 0.62022,1.79296 v 1.76181 q 0,0.53009 0,1.13816 0.0181,0.59245 0.0355,1.15374 0.0181,0.56128 0.0708,0.96663 z m 4.30616,0 v -0.3586 l 1.47082,-0.23387 h 1.48857 l 1.39994,0.23387 v 0.3586 z m 0.81515,0 q 0.0533,-0.40535 0.0711,-0.96664 0.0181,-0.56129 0.0181,-1.15374 0.0182,-0.60807 0.0182,-1.13816 v -0.42096 q 0,-0.49894 0,-0.88869 0,-0.38978 -0.0182,-0.73278 0,-0.34301 -0.0181,-0.70162 l -0.95692,-0.24943 v -0.29625 l 3.33151,-0.84191 0.24807,0.1715 v 1.48116 0.0312 2.44781 q 0,0.5301 0,1.13816 0.0181,0.59245 0.0355,1.15374 0.0181,0.56129 0.0708,0.96664 z m 4.21759,0 v -0.3586 l 1.39994,-0.23387 h 1.50627 l 1.39993,0.23387 v 0.3586 z m 0.76199,0 q 0.053,-0.40535 0.0708,-0.96664 0.0355,-0.56129 0.0355,-1.15374 0,-0.60807 0,-1.13816 v -1.69943 q 0,-0.65483 -0.2481,-0.90428 -0.24809,-0.24946 -0.72656,-0.24946 -0.30124,0 -0.63793,0.10907 -0.3367,0.10908 -0.67338,0.32741 -0.319,0.21829 -0.60253,0.5301 l -0.0181,-0.43655 h 0.19494 q 0.44301,-0.63922 0.90376,-1.02901 0.47845,-0.40537 1.0101,-0.59246 0.54933,-0.18709 1.15182,-0.18709 1.01009,0 1.61261,0.57688 0.62024,0.56127 0.62024,1.79296 v 1.76181 q 0,0.53009 0,1.13816 0.0181,0.59245 0.0355,1.15374 0.0181,0.56128 0.0708,0.96663 z m 8.64776,0.23386 q -1.34677,0 -2.28599,-0.48332 -0.9215,-0.48333 -1.39995,-1.34084 -0.47846,-0.85751 -0.47846,-1.98006 0,-1.12258 0.5139,-1.98008 0.53163,-0.87308 1.47082,-1.35642 0.93923,-0.48332 2.17968,-0.48332 1.3645,0 2.28598,0.48332 0.9392,0.48334 1.39996,1.34084 0.47846,0.85751 0.47846,1.98007 0,1.10696 -0.53164,1.98007 -0.53163,0.87309 -1.47082,1.35642 -0.93921,0.48332 -2.16194,0.48332 z m 0,-0.42096 q 0.443,0 0.74428,-0.29623 0.30125,-0.29622 0.46072,-1.02901 0.1772,-0.73276 0.1772,-2.07361 0,-1.34084 -0.1772,-2.07362 -0.15944,-0.73279 -0.46072,-1.01343 -0.30128,-0.29622 -0.74428,-0.29622 -0.44304,0 -0.74427,0.29622 -0.30127,0.29623 -0.46075,1.04461 -0.15945,0.73279 -0.15945,2.05803 0,1.32526 0.15945,2.07361 0.15943,0.73278 0.46075,1.02901 0.30123,0.28064 0.74427,0.28064 z m 5.01977,0.1871 v -0.3586 l 1.47085,-0.23387 h 1.48854 l 1.39996,0.23387 v 0.3586 z m 0.81518,0 q 0.053,-0.40535 0.0708,-0.96664 0.0181,-0.56129 0.0181,-1.15374 0.0182,-0.60807 0.0182,-1.13816 v -6.76654 l -0.99238,-0.24945 v -0.29625 l 3.4024,-0.77956 0.24811,0.18711 -0.0708,3.16497 v 4.73972 q 0,0.53009 0,1.13816 0.0181,0.59245 0.0355,1.15374 0.0181,0.56129 0.0708,0.96664 z m 8.55917,0.23386 q -1.34678,0 -2.286,-0.48332 -0.92149,-0.48333 -1.39995,-1.34084 -0.47845,-0.85751 -0.47845,-1.98006 0,-1.12258 0.5139,-1.98008 0.53162,-0.87308 1.47081,-1.35642 0.93922,-0.48332 2.17969,-0.48332 1.3645,0 2.28598,0.48332 0.93919,0.48334 1.39995,1.34084 0.47847,0.85751 0.47847,1.98007 0,1.10696 -0.53165,1.98007 -0.53163,0.87309 -1.47081,1.35642 -0.93922,0.48332 -2.16194,0.48332 z m 0,-0.42096 q 0.44299,0 0.74428,-0.29623 0.30124,-0.29622 0.46072,-1.02901 0.1772,-0.73276 0.1772,-2.07361 0,-1.34084 -0.1772,-2.07362 -0.15945,-0.73279 -0.46072,-1.01343 -0.30129,-0.29622 -0.74428,-0.29622 -0.44304,0 -0.74428,0.29622 -0.30127,0.29623 -0.46073,1.04461 -0.15945,0.73279 -0.15945,2.05803 0,1.32526 0.15945,2.07361 0.15942,0.73278 0.46073,1.02901 0.30124,0.28064 0.74428,0.28064 z m 8.48825,3.97576 q -1.38221,0 -2.16192,-0.2183 -0.77971,-0.20268 -1.09871,-0.56127 -0.30124,-0.35859 -0.30124,-0.81073 0,-0.51451 0.37213,-0.82635 0.38987,-0.29623 0.97464,-0.46771 0.5848,-0.17152 1.15186,-0.29627 l 0.0711,0.0468 q -0.30127,0.21827 -0.53164,0.40537 -0.21266,0.20268 -0.31899,0.42098 -0.10635,0.21825 -0.10635,0.53007 0,0.37419 0.19492,0.68601 0.21266,0.32743 0.65567,0.51453 0.44303,0.18709 1.1873,0.18709 0.88604,0 1.48854,-0.23388 0.62024,-0.21828 0.9215,-0.57687 0.31897,-0.35859 0.31897,-0.79514 0,-0.51451 -0.42532,-0.76397 -0.40756,-0.23385 -1.16954,-0.23385 h -1.80754 q -0.14182,0 -0.31896,-0.0153 -0.17722,0 -0.35444,-0.0153 l -0.0885,-0.0153 q -0.70883,-0.0937 -1.29361,-0.48333 -0.56708,-0.37419 -0.56708,-1.09138 0,-0.76396 0.54937,-1.29406 0.56705,-0.5301 1.27589,-0.93548 v -0.17151 l 0.28351,0.34301 q -0.21263,0.1247 -0.42527,0.35859 -0.21265,0.23388 -0.21265,0.59248 0,0.32741 0.31897,0.49891 0.33667,0.17151 0.95691,0.17151 h 2.23284 q 0.97463,0 1.63032,0.26505 0.65565,0.24945 0.99235,0.71719 0.33669,0.46774 0.33669,1.13816 0,0.54567 -0.30126,1.06017 -0.28351,0.53009 -0.8683,0.95107 -0.58479,0.42096 -1.47084,0.67042 -0.88603,0.24946 -2.09104,0.24946 z m 0.30126,-6.23647 q -1.15185,0 -1.89612,-0.3274 -0.74428,-0.32742 -1.11641,-0.88869 -0.35442,-0.57688 -0.35442,-1.29407 0,-0.71719 0.38986,-1.26289 0.40758,-0.56129 1.16957,-0.85751 0.762,-0.31181 1.80752,-0.31181 0.74429,0 1.31133,0.14029 0.56708,0.14029 0.97468,0.38978 0.40755,0.24945 0.63795,0.59246 l 0.053,0.0781 q 0.19492,0.26505 0.28353,0.59246 0.0885,0.32741 0.0885,0.7172 0,0.70159 -0.40757,1.26286 -0.38987,0.5457 -1.15186,0.85754 -0.74426,0.31181 -1.78981,0.31181 z m 0,-0.38977 q 0.30127,0 0.53164,-0.2027 0.23037,-0.20267 0.33669,-0.65482 0.12403,-0.46772 0.12403,-1.23169 0,-0.77956 -0.12403,-1.23169 -0.10635,-0.45217 -0.33669,-0.63924 -0.23037,-0.20268 -0.53164,-0.20268 -0.31898,0 -0.54934,0.20268 -0.21265,0.18707 -0.33669,0.63924 -0.12403,0.45213 -0.12403,1.23169 0,0.77955 0.12403,1.24729 0.12401,0.45214 0.33669,0.65481 0.23036,0.18711 0.54934,0.18711 z m 2.62267,-3.07147 -0.12401,-0.35859 h 0.0708 l 1.96702,-1.12254 0.21265,0.1247 v 1.35642 z m 2.89808,5.90905 v -0.3586 l 1.47082,-0.23387 h 1.48855 l 1.39993,0.23387 v 0.3586 z m 0.81515,0 q 0.053,-0.40535 0.0708,-0.96664 0.0182,-0.56129 0.0182,-1.15374 0.0181,-0.60807 0.0181,-1.13816 v -0.40536 q 0,-0.76397 0,-1.27849 0,-0.5145 -0.0355,-1.0602 l -0.95691,-0.24943 v -0.29625 l 3.40238,-0.84191 0.2481,0.1715 -0.0708,2.07361 v 1.88653 q 0,0.53009 0,1.13816 0.0182,0.59245 0.0355,1.15374 0.0181,0.56129 0.0708,0.96664 z m 1.39994,-8.46598 q -0.53161,0 -0.92146,-0.31182 -0.38987,-0.31182 -0.38987,-0.81073 0,-0.49892 0.38987,-0.81075 0.38985,-0.31183 0.92146,-0.31183 0.54935,0 0.92149,0.31183 0.37212,0.31183 0.37212,0.79516 0,0.5145 -0.37212,0.82632 -0.37214,0.31182 -0.92149,0.31182 z m 6.87569,8.69984 q -1.08097,0 -1.98474,-0.42096 -0.88603,-0.43654 -1.41766,-1.26287 -0.51389,-0.82634 -0.51389,-2.02685 0,-1.30965 0.54934,-2.16716 0.56706,-0.87311 1.45312,-1.30965 0.90374,-0.43655 1.91383,-0.43655 1.04552,0 1.78982,0.3742 0.76197,0.37417 1.15184,1.01339 0.38984,0.62365 0.38984,1.4344 0,0.24945 -0.0181,0.37417 0,0.12471 -0.053,0.32743 h -6.1314 v -0.38978 h 2.55179 q 0.77971,0 1.06325,-0.23387 0.30125,-0.23386 0.30125,-0.9199 0,-0.59245 -0.12403,-0.91984 -0.12402,-0.34302 -0.35442,-0.48333 -0.21264,-0.15588 -0.51391,-0.15588 -0.3544,0 -0.63794,0.28063 -0.28353,0.28065 -0.44302,0.95107 -0.15943,0.67041 -0.15943,1.85533 0,0.93546 0.30124,1.5903 0.31898,0.63925 0.85061,0.98223 0.54934,0.32744 1.24045,0.32744 0.56706,0 1.0101,-0.18711 0.44301,-0.20268 0.79743,-0.51452 l 0.24807,0.20271 q -0.31895,0.60805 -0.81513,0.98223 -0.49619,0.37419 -1.11643,0.54569 -0.6025,0.18709 -1.32906,0.18709 z m 7.19464,0 q -0.74426,0 -1.41765,-0.18709 -0.67338,-0.1715 -1.2759,-0.46772 l 0.053,-1.93332 h 0.37211 l 1.0101,2.05804 h -0.60252 v -0.34301 q 0.46073,0.21829 0.81517,0.3586 0.37213,0.12471 1.01008,0.12471 0.44301,0 0.76201,-0.12471 0.33668,-0.1247 0.51388,-0.37419 0.19494,-0.24944 0.19494,-0.60805 0,-0.56128 -0.46073,-0.82633 -0.46076,-0.28064 -1.09871,-0.5145 l -0.49618,-0.18709 q -0.49618,-0.20269 -0.97465,-0.45215 -0.46073,-0.26506 -0.76199,-0.68601 -0.28353,-0.42095 -0.28353,-1.09136 0,-0.68603 0.3367,-1.21613 0.35443,-0.5301 1.04553,-0.84192 0.70883,-0.31181 1.77207,-0.31181 0.70883,0 1.25817,0.14029 0.54937,0.14029 1.06328,0.40538 l -0.0533,1.87093 h -0.37215 l -1.01008,-2.04242 h 0.60249 v 0.4833 q -0.30123,-0.26505 -0.63794,-0.35859 -0.31897,-0.10908 -0.8506,-0.10908 -0.58479,0 -0.95691,0.24946 -0.37214,0.24944 -0.37214,0.76397 0,0.54567 0.47846,0.82632 0.47845,0.28064 1.09869,0.51452 l 0.49618,0.18709 q 0.51391,0.18707 0.97466,0.45213 0.47844,0.24947 0.7797,0.67042 0.30125,0.42096 0.30125,1.09139 0,0.81072 -0.38985,1.37201 -0.38987,0.5457 -1.13414,0.82632 -0.74427,0.28066 -1.78981,0.28066 z"
         id="text5-7"
         aria-label="for critical AI &amp; digital technologies" /></g></g></svg>
